Results
version=1
nRows=22
nColumns=24
inDegrees=yes
endheader
time	pelvis_tilt	pelvis_list	pelvis_rotation	pelvis_tx	pelvis_ty	pelvis_tz	hip_flexion_r	hip_adduction_r	hip_rotation_r	knee_angle_r	ankle_angle_r	subtalar_angle_r	mtp_angle_r	hip_flexion_l	hip_adduction_l	hip_rotation_l	knee_angle_l	ankle_angle_l	subtalar_angle_l	mtp_angle_l	lumbar_extension	lumbar_bending	lumbar_rotation
      0.45800000	     -7.52326104	      4.54855438	     -1.16034761	     -0.83017212	      1.02503711	      0.26342564	     36.60055089	     -3.49331615	      3.15878784	     -6.37506561	      7.90815564	     -5.74143161	     11.51082328	    -11.94636337	      5.83104651	      9.66164327	      0.86394832	     12.31684310	     -4.88534211	      4.01362462	    -14.36301360	     -3.85495773	     -6.00994029
      0.46216667	     -7.54287002	      4.58072753	     -0.99518909	     -0.82440541	      1.02416173	      0.26354923	     36.52682004	     -3.57062573	      3.41119542	     -6.68583218	      7.86038194	     -5.80664918	     11.51313838	    -12.07876818	      5.83802051	      9.70309939	      0.46453987	     12.49403753	     -4.63429301	      4.05549046	    -14.33496699	     -3.76315551	     -6.09718257
      0.46633333	     -7.58727548	      4.59354897	     -0.82803249	     -0.81855622	      1.02330227	      0.26365972	     36.45350872	     -3.63047091	      3.63425795	     -6.98082435	      7.77498991	     -5.87339578	     11.52474001	    -12.14828756	      5.82899138	      9.62492196	     -0.02294340	     12.72506446	     -4.24222478	      4.13773725	    -14.25924818	     -3.63203255	     -6.14701700
      0.47050000	     -7.59712064	      4.60258962	     -0.67136950	     -0.81268794	      1.02252605	      0.26379306	     36.34154777	     -3.68244770	      3.82029227	     -7.29585503	      7.65984919	     -5.93129819	     11.54638427	    -12.25953795	      5.81307596	      9.55113516	     -0.49627430	     12.93038784	     -3.83400758	      4.25559223	    -14.23355981	     -3.50352785	     -6.18597877
      0.47466667	     -7.63587321	      4.61788030	     -0.50941357	     -0.80680069	      1.02175070	      0.26393108	     36.25413701	     -3.74016247	      3.98222985	     -7.61787703	      7.49571376	     -6.00197942	     11.57668579	    -12.31396256	      5.80301639	      9.45998151	     -1.02882021	     13.12945378	     -3.40611563	      4.39741420	    -14.16348839	     -3.38282350	     -6.22232728
      0.47883333	     -7.67305120	      4.61725791	     -0.34936822	     -0.80085299	      1.02103774	      0.26407013	     36.15090246	     -3.78334024	      4.09845087	     -7.93453172	      7.28424671	     -6.07551697	     11.61623436	    -12.36000714	      5.77481197	      9.32533637	     -1.58489186	     13.32210478	     -2.92639855	      4.56706228	    -14.09336590	     -3.24030317	     -6.25125442
      0.48300000	     -7.72041970	      4.61432160	     -0.19293108	     -0.79488556	      1.02035970	      0.26422560	     36.05584934	     -3.82070135	      4.18489595	     -8.25996600	      7.02897104	     -6.15750002	     11.66424095	    -12.37924753	      5.74317264	      9.15939533	     -2.17031819	     13.49514517	     -2.41597861	      4.77055488	    -14.01162085	     -3.09764557	     -6.27429974
      0.48716667	     -7.75529521	      4.60370048	     -0.04118575	     -0.78890555	      1.01975804	      0.26439297	     35.94370975	     -3.85000257	      4.23627126	     -8.58628345	      6.72055242	     -6.24675744	     11.72031849	    -12.38596103	      5.70293648	      8.94757759	     -2.80967904	     13.67043937	     -1.85205263	      5.00769510	    -13.94374211	     -2.94645546	     -6.28501762
      0.49133333	     -7.78492063	      4.59680679	      0.09530181	     -0.78292523	      1.01921093	      0.26458961	     35.83408270	     -3.87512070	      4.26297909	     -8.92865917	      6.36775131	     -6.32810055	     11.78829497	    -12.38031430	      5.66779487	      8.69935802	     -3.48210726	     13.83377797	     -1.24756955	      5.29624460	    -13.88582863	     -2.80770453	     -6.27839120
      0.49550000	     -7.83481605	      4.57517435	      0.23806487	     -0.77690323	      1.01871712	      0.26477830	     35.73811829	     -3.89063575	      4.24927534	     -9.26869792	      5.97714752	     -6.42411689	     11.86635116	    -12.32315434	      5.61474162	      8.41393096	     -4.21608443	     13.97658510	     -0.61509187	      5.64476035	    -13.79909334	     -2.64868235	     -6.26275821
      0.49966667	     -7.91018801	      4.52501777	      0.37769511	     -0.77083395	      1.01824318	      0.26496877	     35.67098588	     -3.87854161	      4.18388990	     -9.62475123	      5.57341246	     -6.53879399	     11.92109926	    -12.23227521	      5.53037357	      8.14249264	     -4.96685156	     14.08478072	     -0.03826424	      5.91938976	    -13.65923516	     -2.43468372	     -6.23165904
      0.50383333	     -7.95056325	      4.49580461	      0.49239160	     -0.76481715	      1.01788829	      0.26522563	     35.58693916	     -3.87375986	      4.12358491	    -10.00702027	      5.10183929	     -6.62420475	     11.98653199	    -12.13748030	      5.46782989	      7.76317457	     -5.78697007	     14.20637664	      0.69683654	      6.27824644	    -13.59291801	     -2.27742594	     -6.19584195
      0.50800000	     -8.02399764	      4.43601577	      0.61320986	     -0.75874786	      1.01756024	      0.26546591	     35.53897451	     -3.84534668	      4.01287301	    -10.40830780	      4.65254698	     -6.72464785	     12.04641928	    -11.97876702	      5.37103846	      7.38327095	     -6.66860971	     14.29262670	      1.38408722	      6.64640598	    -13.46656655	     -2.07185142	     -6.13799262
      0.51216667	     -8.03981328	      4.36183078	      0.70102857	     -0.75268508	      1.01739455	      0.26575325	     35.43749811	     -3.79213105	      3.88287217	    -10.81546856	      4.16918128	     -6.75308926	     12.42057986	    -11.86926381	      5.25917916	      6.95810302	     -7.55727098	     14.27831593	      2.03933383	      8.96128085	    -13.41968648	     -1.84644731	     -6.05312154
      0.51633333	     -8.12014994	      4.30841607	      0.80083789	     -0.74665412	      1.01717975	      0.26606133	     35.43887818	     -3.76037577	      3.74261229	    -11.29953111	      3.71392273	     -6.86802217	     12.41800733	    -11.64681994	      5.16579262	      6.55371330	     -8.54161379	     14.32567241	      2.74267415	      9.09202730	    -13.29972129	     -1.66947678	     -5.98255750
      0.52050000	     -8.16474727	      4.21057481	      0.88095302	     -0.74058199	      1.01710534	      0.26638325	     35.39992905	     -3.68260770	      3.56964536	    -11.78815589	      3.28182645	     -6.92806371	     12.41837920	    -11.44238311	      5.02245402	      6.08871468	     -9.56061297	     14.33169627	      3.47482053	      9.33490100	    -13.21739588	     -1.41826473	     -5.87642148
      0.52466667	     -8.24436333	      4.12918482	      0.93672344	     -0.73451858	      1.01701792	      0.26676847	     35.42987744	     -3.60636707	      3.41316882	    -12.33729619	      2.87568380	     -6.96210635	     12.41609815	    -11.17355477	      4.89825775	      5.61611726	    -10.63093041	     14.28364879	      4.14561871	      9.57013094	    -13.08462211	     -1.20686754	     -5.75594065
      0.52883333	     -8.30816196	      4.01028166	      0.99648891	     -0.72842471	      1.01704004	      0.26714098	     35.43654469	     -3.50211626	      3.22670785	    -12.89093432	      2.54059408	     -6.98628550	     12.41032326	    -10.89279753	      4.72749104	      5.13564506	    -11.75746358	     14.19472136	      4.80627502	      9.81982151	    -12.96400326	     -0.93668412	     -5.60546766
      0.53300000	     -8.30392718	      3.89457379	      1.01752296	     -0.72238740	      1.01722342	      0.26759916	     35.38794347	     -3.38170306	      3.07147646	    -13.46622643	      2.16409262	     -6.99805424	     12.39581806	    -10.65699921	      4.55372962	      4.58179103	    -12.92343095	     14.06359446	      5.54908470	     10.27671715	    -12.95963228	     -0.69126439	     -5.47665174
      0.53716667	     -8.33942828	      3.77958033	      1.01357040	     -0.71631327	      1.01737139	      0.26809085	     35.41737302	     -3.25131381	      2.89548166	    -14.12444754	      1.87992408	     -6.97670364	     12.37688555	    -10.36147118	      4.38382622	      4.03981607	    -14.11680691	     13.88132606	      6.19346815	     10.71059848	    -12.88446507	     -0.43649775	     -5.30455498
      0.54133333	     -8.38095357	      3.64724522	      1.00751968	     -0.71022861	      1.01757257	      0.26859645	     35.44791079	     -3.10475735	      2.72850488	    -14.78301121	      1.65788754	     -6.95653189	     12.35271957	    -10.03327831	      4.18997166	      3.51638781	    -15.36476013	     13.64031936	      6.78468413	     11.10901401	    -12.79620133	     -0.16500462	     -5.11518671
      0.54550000	     -8.39775205	      3.49295488	      0.98777114	     -0.70413143	      1.01789241	      0.26916493	     35.42260930	     -2.92333756	      2.63825553	    -15.38476070	      1.39390797	     -7.07705445	     12.12050228	     -9.70914228	      3.96315992	      2.98719973	    -16.63687556	     13.25802829	      7.29358107	     14.10587931	    -12.73711249	      0.13241997	     -4.96669694
